<mxfile host="Electron" modified="2024-05-03T23:27:02.693Z" agent="Mozilla/5.0 (Windows NT 10.0; Win64; x64) AppleWebKit/537.36 (KHTML, like Gecko) draw.io/24.2.5 Chrome/120.0.6099.109 Electron/28.1.0 Safari/537.36" etag="uRxY2SdCcVvmIBqDCd4D" version="24.2.5" type="device">
  <diagram name="Страница — 1" id="kUTTZRlTQEJJQ63rGm4F">
    <mxGraphModel dx="1674" dy="844" grid="1" gridSize="10" guides="1" tooltips="1" connect="1" arrows="1" fold="1" page="1" pageScale="1" pageWidth="827" pageHeight="1169" math="0" shadow="0">
      <root>
        <mxCell id="0" />
        <mxCell id="1" parent="0" />
        <mxCell id="uf_4h1XAdYXAMZUNgRLw-30" style="edgeStyle=orthogonalEdgeStyle;rounded=0;orthogonalLoop=1;jettySize=auto;html=1;exitX=0.5;exitY=1;exitDx=0;exitDy=0;entryX=0.5;entryY=0;entryDx=0;entryDy=0;" edge="1" parent="1" source="uf_4h1XAdYXAMZUNgRLw-1" target="uf_4h1XAdYXAMZUNgRLw-29">
          <mxGeometry relative="1" as="geometry" />
        </mxCell>
        <mxCell id="uf_4h1XAdYXAMZUNgRLw-1" value="начало&lt;div&gt;AddFirst&lt;br&gt;&lt;/div&gt;" style="rounded=1;whiteSpace=wrap;html=1;arcSize=50;" vertex="1" parent="1">
          <mxGeometry x="20" y="20" width="100" height="50" as="geometry" />
        </mxCell>
        <mxCell id="uf_4h1XAdYXAMZUNgRLw-10" style="edgeStyle=orthogonalEdgeStyle;rounded=0;orthogonalLoop=1;jettySize=auto;html=1;exitX=0.5;exitY=1;exitDx=0;exitDy=0;exitPerimeter=0;entryX=0.5;entryY=0;entryDx=0;entryDy=0;" edge="1" parent="1" source="uf_4h1XAdYXAMZUNgRLw-11" target="uf_4h1XAdYXAMZUNgRLw-22">
          <mxGeometry relative="1" as="geometry">
            <mxPoint x="70" y="230" as="targetPoint" />
          </mxGeometry>
        </mxCell>
        <mxCell id="uf_4h1XAdYXAMZUNgRLw-11" value="цикл 1&lt;div&gt;i = n-1&lt;/div&gt;" style="strokeWidth=2;html=1;shape=mxgraph.flowchart.loop_limit;whiteSpace=wrap;" vertex="1" parent="1">
          <mxGeometry x="20" y="160" width="100" height="50" as="geometry" />
        </mxCell>
        <mxCell id="uf_4h1XAdYXAMZUNgRLw-35" style="edgeStyle=orthogonalEdgeStyle;rounded=0;orthogonalLoop=1;jettySize=auto;html=1;exitX=0.5;exitY=0;exitDx=0;exitDy=0;exitPerimeter=0;entryX=0.5;entryY=0;entryDx=0;entryDy=0;" edge="1" parent="1" source="uf_4h1XAdYXAMZUNgRLw-12" target="uf_4h1XAdYXAMZUNgRLw-32">
          <mxGeometry relative="1" as="geometry" />
        </mxCell>
        <mxCell id="uf_4h1XAdYXAMZUNgRLw-12" value="" style="strokeWidth=2;html=1;shape=mxgraph.flowchart.loop_limit;whiteSpace=wrap;rotation=-180;" vertex="1" parent="1">
          <mxGeometry x="20" y="470" width="100" height="50" as="geometry" />
        </mxCell>
        <mxCell id="uf_4h1XAdYXAMZUNgRLw-13" value="цикл 1" style="text;html=1;strokeColor=none;fillColor=none;align=center;verticalAlign=middle;whiteSpace=wrap;rounded=0;" vertex="1" parent="1">
          <mxGeometry x="40" y="480" width="60" height="30" as="geometry" />
        </mxCell>
        <mxCell id="uf_4h1XAdYXAMZUNgRLw-14" value="" style="strokeWidth=2;html=1;shape=mxgraph.flowchart.annotation_1;align=left;pointerEvents=1;" vertex="1" parent="1">
          <mxGeometry x="210" y="235" width="20" height="50" as="geometry" />
        </mxCell>
        <mxCell id="uf_4h1XAdYXAMZUNgRLw-15" value="" style="endArrow=none;dashed=1;html=1;rounded=0;exitX=1;exitY=0.5;exitDx=0;exitDy=0;entryX=0;entryY=0.5;entryDx=0;entryDy=0;entryPerimeter=0;" edge="1" parent="1" target="uf_4h1XAdYXAMZUNgRLw-14">
          <mxGeometry width="50" height="50" relative="1" as="geometry">
            <mxPoint x="190" y="260" as="sourcePoint" />
            <mxPoint x="400" y="315" as="targetPoint" />
          </mxGeometry>
        </mxCell>
        <mxCell id="uf_4h1XAdYXAMZUNgRLw-16" value="maxint - мкасимальное значение integer" style="text;html=1;align=center;verticalAlign=middle;whiteSpace=wrap;rounded=0;" vertex="1" parent="1">
          <mxGeometry x="214" y="245" width="136" height="30" as="geometry" />
        </mxCell>
        <mxCell id="uf_4h1XAdYXAMZUNgRLw-17" value="" style="strokeWidth=2;html=1;shape=mxgraph.flowchart.annotation_1;align=left;pointerEvents=1;" vertex="1" parent="1">
          <mxGeometry x="140" y="160" width="20" height="50" as="geometry" />
        </mxCell>
        <mxCell id="uf_4h1XAdYXAMZUNgRLw-18" value="" style="endArrow=none;dashed=1;html=1;rounded=0;exitX=1;exitY=0.5;exitDx=0;exitDy=0;entryX=0;entryY=0.5;entryDx=0;entryDy=0;entryPerimeter=0;exitPerimeter=0;" edge="1" parent="1" source="uf_4h1XAdYXAMZUNgRLw-11" target="uf_4h1XAdYXAMZUNgRLw-17">
          <mxGeometry width="50" height="50" relative="1" as="geometry">
            <mxPoint x="170" y="185" as="sourcePoint" />
            <mxPoint x="270" y="260" as="targetPoint" />
          </mxGeometry>
        </mxCell>
        <mxCell id="uf_4h1XAdYXAMZUNgRLw-19" value="n = 10, это константа" style="text;html=1;align=center;verticalAlign=middle;whiteSpace=wrap;rounded=0;" vertex="1" parent="1">
          <mxGeometry x="144" y="170" width="76" height="30" as="geometry" />
        </mxCell>
        <mxCell id="uf_4h1XAdYXAMZUNgRLw-20" style="edgeStyle=orthogonalEdgeStyle;rounded=0;orthogonalLoop=1;jettySize=auto;html=1;exitX=1;exitY=0.5;exitDx=0;exitDy=0;entryX=0.5;entryY=0;entryDx=0;entryDy=0;" edge="1" parent="1" source="uf_4h1XAdYXAMZUNgRLw-22" target="uf_4h1XAdYXAMZUNgRLw-26">
          <mxGeometry relative="1" as="geometry" />
        </mxCell>
        <mxCell id="uf_4h1XAdYXAMZUNgRLw-21" style="edgeStyle=orthogonalEdgeStyle;rounded=0;orthogonalLoop=1;jettySize=auto;html=1;exitX=0.5;exitY=1;exitDx=0;exitDy=0;" edge="1" parent="1" source="uf_4h1XAdYXAMZUNgRLw-22" target="uf_4h1XAdYXAMZUNgRLw-27">
          <mxGeometry relative="1" as="geometry" />
        </mxCell>
        <mxCell id="uf_4h1XAdYXAMZUNgRLw-22" value="MaxInt&amp;nbsp;&lt;span style=&quot;font-family: arial, verdana; font-size: 13px; text-align: start; background-color: rgb(255, 255, 255);&quot;&gt;≠&amp;nbsp;&lt;/span&gt;A[i]" style="rhombus;whiteSpace=wrap;html=1;" vertex="1" parent="1">
          <mxGeometry x="20" y="230" width="100" height="60" as="geometry" />
        </mxCell>
        <mxCell id="uf_4h1XAdYXAMZUNgRLw-23" value="да" style="text;html=1;strokeColor=none;fillColor=none;align=center;verticalAlign=middle;whiteSpace=wrap;rounded=0;" vertex="1" parent="1">
          <mxGeometry x="96.5" y="230" width="60" height="30" as="geometry" />
        </mxCell>
        <mxCell id="uf_4h1XAdYXAMZUNgRLw-24" value="нет" style="text;html=1;strokeColor=none;fillColor=none;align=center;verticalAlign=middle;whiteSpace=wrap;rounded=0;" vertex="1" parent="1">
          <mxGeometry x="60" y="280" width="60" height="30" as="geometry" />
        </mxCell>
        <mxCell id="uf_4h1XAdYXAMZUNgRLw-25" style="edgeStyle=orthogonalEdgeStyle;rounded=0;orthogonalLoop=1;jettySize=auto;html=1;exitX=0.5;exitY=1;exitDx=0;exitDy=0;" edge="1" parent="1" source="uf_4h1XAdYXAMZUNgRLw-26">
          <mxGeometry relative="1" as="geometry">
            <mxPoint x="70" y="380" as="targetPoint" />
            <Array as="points">
              <mxPoint x="190" y="380" />
            </Array>
          </mxGeometry>
        </mxCell>
        <mxCell id="uf_4h1XAdYXAMZUNgRLw-26" value="k=k+1" style="rounded=0;whiteSpace=wrap;html=1;" vertex="1" parent="1">
          <mxGeometry x="140" y="310" width="100" height="50" as="geometry" />
        </mxCell>
        <mxCell id="uf_4h1XAdYXAMZUNgRLw-27" value="i = i + 1" style="rounded=0;whiteSpace=wrap;html=1;" vertex="1" parent="1">
          <mxGeometry x="20" y="400" width="100" height="50" as="geometry" />
        </mxCell>
        <mxCell id="uf_4h1XAdYXAMZUNgRLw-28" style="edgeStyle=orthogonalEdgeStyle;rounded=0;orthogonalLoop=1;jettySize=auto;html=1;exitX=0.5;exitY=1;exitDx=0;exitDy=0;entryX=0.5;entryY=1;entryDx=0;entryDy=0;entryPerimeter=0;" edge="1" parent="1" source="uf_4h1XAdYXAMZUNgRLw-27" target="uf_4h1XAdYXAMZUNgRLw-12">
          <mxGeometry relative="1" as="geometry" />
        </mxCell>
        <mxCell id="uf_4h1XAdYXAMZUNgRLw-29" value="i = 0" style="rounded=0;whiteSpace=wrap;html=1;" vertex="1" parent="1">
          <mxGeometry x="20" y="90" width="100" height="50" as="geometry" />
        </mxCell>
        <mxCell id="uf_4h1XAdYXAMZUNgRLw-31" style="edgeStyle=orthogonalEdgeStyle;rounded=0;orthogonalLoop=1;jettySize=auto;html=1;exitX=0.5;exitY=1;exitDx=0;exitDy=0;entryX=0.5;entryY=0;entryDx=0;entryDy=0;entryPerimeter=0;" edge="1" parent="1" source="uf_4h1XAdYXAMZUNgRLw-29" target="uf_4h1XAdYXAMZUNgRLw-11">
          <mxGeometry relative="1" as="geometry" />
        </mxCell>
        <mxCell id="uf_4h1XAdYXAMZUNgRLw-38" style="edgeStyle=orthogonalEdgeStyle;rounded=0;orthogonalLoop=1;jettySize=auto;html=1;exitX=1;exitY=0.5;exitDx=0;exitDy=0;entryX=0.5;entryY=0;entryDx=0;entryDy=0;" edge="1" parent="1" source="uf_4h1XAdYXAMZUNgRLw-32" target="uf_4h1XAdYXAMZUNgRLw-37">
          <mxGeometry relative="1" as="geometry" />
        </mxCell>
        <mxCell id="uf_4h1XAdYXAMZUNgRLw-46" style="edgeStyle=orthogonalEdgeStyle;rounded=0;orthogonalLoop=1;jettySize=auto;html=1;exitX=0.5;exitY=1;exitDx=0;exitDy=0;entryX=0.5;entryY=0;entryDx=0;entryDy=0;" edge="1" parent="1" source="uf_4h1XAdYXAMZUNgRLw-32" target="uf_4h1XAdYXAMZUNgRLw-45">
          <mxGeometry relative="1" as="geometry" />
        </mxCell>
        <mxCell id="uf_4h1XAdYXAMZUNgRLw-32" value="k = n" style="rhombus;whiteSpace=wrap;html=1;" vertex="1" parent="1">
          <mxGeometry x="20" y="540" width="100" height="60" as="geometry" />
        </mxCell>
        <mxCell id="uf_4h1XAdYXAMZUNgRLw-33" value="да" style="text;html=1;strokeColor=none;fillColor=none;align=center;verticalAlign=middle;whiteSpace=wrap;rounded=0;" vertex="1" parent="1">
          <mxGeometry x="93" y="540" width="60" height="30" as="geometry" />
        </mxCell>
        <mxCell id="uf_4h1XAdYXAMZUNgRLw-34" value="нет" style="text;html=1;strokeColor=none;fillColor=none;align=center;verticalAlign=middle;whiteSpace=wrap;rounded=0;" vertex="1" parent="1">
          <mxGeometry x="60" y="590" width="60" height="30" as="geometry" />
        </mxCell>
        <mxCell id="uf_4h1XAdYXAMZUNgRLw-66" style="edgeStyle=orthogonalEdgeStyle;rounded=0;orthogonalLoop=1;jettySize=auto;html=1;exitX=0.5;exitY=1;exitDx=0;exitDy=0;" edge="1" parent="1" source="uf_4h1XAdYXAMZUNgRLw-37">
          <mxGeometry relative="1" as="geometry">
            <mxPoint x="70" y="1040" as="targetPoint" />
            <Array as="points">
              <mxPoint x="190" y="960" />
              <mxPoint x="260" y="960" />
              <mxPoint x="260" y="1040" />
            </Array>
          </mxGeometry>
        </mxCell>
        <mxCell id="uf_4h1XAdYXAMZUNgRLw-37" value="Вывод:&lt;br&gt;&lt;div&gt;Превышено кол-во элементов&lt;br&gt;&lt;/div&gt;" style="shape=parallelogram;perimeter=parallelogramPerimeter;whiteSpace=wrap;html=1;fixedSize=1;" vertex="1" parent="1">
          <mxGeometry x="140" y="610" width="100" height="50" as="geometry" />
        </mxCell>
        <mxCell id="uf_4h1XAdYXAMZUNgRLw-49" style="edgeStyle=orthogonalEdgeStyle;rounded=0;orthogonalLoop=1;jettySize=auto;html=1;exitX=0.5;exitY=1;exitDx=0;exitDy=0;exitPerimeter=0;entryX=0.5;entryY=0;entryDx=0;entryDy=0;" edge="1" parent="1" source="uf_4h1XAdYXAMZUNgRLw-43" target="uf_4h1XAdYXAMZUNgRLw-48">
          <mxGeometry relative="1" as="geometry" />
        </mxCell>
        <mxCell id="uf_4h1XAdYXAMZUNgRLw-43" value="цикл 2&lt;div&gt;i = 0&lt;/div&gt;" style="strokeWidth=2;html=1;shape=mxgraph.flowchart.loop_limit;whiteSpace=wrap;" vertex="1" parent="1">
          <mxGeometry x="20" y="690" width="100" height="50" as="geometry" />
        </mxCell>
        <mxCell id="uf_4h1XAdYXAMZUNgRLw-45" value="i = n-2" style="rounded=0;whiteSpace=wrap;html=1;" vertex="1" parent="1">
          <mxGeometry x="20" y="620" width="100" height="50" as="geometry" />
        </mxCell>
        <mxCell id="uf_4h1XAdYXAMZUNgRLw-47" style="edgeStyle=orthogonalEdgeStyle;rounded=0;orthogonalLoop=1;jettySize=auto;html=1;exitX=0.5;exitY=1;exitDx=0;exitDy=0;entryX=0.5;entryY=0;entryDx=0;entryDy=0;entryPerimeter=0;" edge="1" parent="1" source="uf_4h1XAdYXAMZUNgRLw-45" target="uf_4h1XAdYXAMZUNgRLw-43">
          <mxGeometry relative="1" as="geometry" />
        </mxCell>
        <mxCell id="uf_4h1XAdYXAMZUNgRLw-51" style="edgeStyle=orthogonalEdgeStyle;rounded=0;orthogonalLoop=1;jettySize=auto;html=1;exitX=0.5;exitY=1;exitDx=0;exitDy=0;entryX=0.5;entryY=0;entryDx=0;entryDy=0;" edge="1" parent="1" source="uf_4h1XAdYXAMZUNgRLw-48" target="uf_4h1XAdYXAMZUNgRLw-50">
          <mxGeometry relative="1" as="geometry" />
        </mxCell>
        <mxCell id="uf_4h1XAdYXAMZUNgRLw-48" value="A[i+1] = A[i]" style="rounded=0;whiteSpace=wrap;html=1;" vertex="1" parent="1">
          <mxGeometry x="20" y="760" width="100" height="50" as="geometry" />
        </mxCell>
        <mxCell id="uf_4h1XAdYXAMZUNgRLw-50" value="i = i - 1" style="rounded=0;whiteSpace=wrap;html=1;" vertex="1" parent="1">
          <mxGeometry x="20" y="830" width="100" height="50" as="geometry" />
        </mxCell>
        <mxCell id="uf_4h1XAdYXAMZUNgRLw-56" style="edgeStyle=orthogonalEdgeStyle;rounded=0;orthogonalLoop=1;jettySize=auto;html=1;exitX=0.5;exitY=0;exitDx=0;exitDy=0;exitPerimeter=0;entryX=0.5;entryY=0;entryDx=0;entryDy=0;" edge="1" parent="1" source="uf_4h1XAdYXAMZUNgRLw-52" target="uf_4h1XAdYXAMZUNgRLw-55">
          <mxGeometry relative="1" as="geometry" />
        </mxCell>
        <mxCell id="uf_4h1XAdYXAMZUNgRLw-52" value="" style="strokeWidth=2;html=1;shape=mxgraph.flowchart.loop_limit;whiteSpace=wrap;rotation=-180;" vertex="1" parent="1">
          <mxGeometry x="20" y="900" width="100" height="50" as="geometry" />
        </mxCell>
        <mxCell id="uf_4h1XAdYXAMZUNgRLw-53" value="цикл 2" style="text;html=1;strokeColor=none;fillColor=none;align=center;verticalAlign=middle;whiteSpace=wrap;rounded=0;" vertex="1" parent="1">
          <mxGeometry x="40" y="910" width="60" height="30" as="geometry" />
        </mxCell>
        <mxCell id="uf_4h1XAdYXAMZUNgRLw-54" style="edgeStyle=orthogonalEdgeStyle;rounded=0;orthogonalLoop=1;jettySize=auto;html=1;exitX=0.5;exitY=1;exitDx=0;exitDy=0;entryX=0.5;entryY=1;entryDx=0;entryDy=0;entryPerimeter=0;" edge="1" parent="1" source="uf_4h1XAdYXAMZUNgRLw-50" target="uf_4h1XAdYXAMZUNgRLw-52">
          <mxGeometry relative="1" as="geometry" />
        </mxCell>
        <mxCell id="uf_4h1XAdYXAMZUNgRLw-65" style="edgeStyle=orthogonalEdgeStyle;rounded=0;orthogonalLoop=1;jettySize=auto;html=1;exitX=0.5;exitY=1;exitDx=0;exitDy=0;entryX=0.5;entryY=0;entryDx=0;entryDy=0;" edge="1" parent="1" source="uf_4h1XAdYXAMZUNgRLw-55" target="uf_4h1XAdYXAMZUNgRLw-64">
          <mxGeometry relative="1" as="geometry" />
        </mxCell>
        <mxCell id="uf_4h1XAdYXAMZUNgRLw-55" value="A[0] = NewNumber" style="rounded=0;whiteSpace=wrap;html=1;" vertex="1" parent="1">
          <mxGeometry x="20" y="970" width="100" height="50" as="geometry" />
        </mxCell>
        <mxCell id="uf_4h1XAdYXAMZUNgRLw-61" value="" style="strokeWidth=2;html=1;shape=mxgraph.flowchart.annotation_1;align=left;pointerEvents=1;" vertex="1" parent="1">
          <mxGeometry x="140" y="970" width="20" height="50" as="geometry" />
        </mxCell>
        <mxCell id="uf_4h1XAdYXAMZUNgRLw-62" value="" style="endArrow=none;dashed=1;html=1;rounded=0;exitX=1;exitY=0.5;exitDx=0;exitDy=0;entryX=0;entryY=0.5;entryDx=0;entryDy=0;entryPerimeter=0;" edge="1" parent="1" target="uf_4h1XAdYXAMZUNgRLw-61">
          <mxGeometry width="50" height="50" relative="1" as="geometry">
            <mxPoint x="120" y="995" as="sourcePoint" />
            <mxPoint x="330" y="1050" as="targetPoint" />
          </mxGeometry>
        </mxCell>
        <mxCell id="uf_4h1XAdYXAMZUNgRLw-63" value="NewNumber - число введённое в подпрограмму" style="text;html=1;align=center;verticalAlign=middle;whiteSpace=wrap;rounded=0;" vertex="1" parent="1">
          <mxGeometry x="140" y="980" width="110" height="30" as="geometry" />
        </mxCell>
        <mxCell id="uf_4h1XAdYXAMZUNgRLw-64" value="конец" style="rounded=1;whiteSpace=wrap;html=1;arcSize=50;" vertex="1" parent="1">
          <mxGeometry x="20" y="1060" width="100" height="50" as="geometry" />
        </mxCell>
        <mxCell id="uf_4h1XAdYXAMZUNgRLw-67" style="edgeStyle=orthogonalEdgeStyle;rounded=0;orthogonalLoop=1;jettySize=auto;html=1;exitX=0.5;exitY=1;exitDx=0;exitDy=0;entryX=0.5;entryY=0;entryDx=0;entryDy=0;" edge="1" parent="1" source="uf_4h1XAdYXAMZUNgRLw-68" target="uf_4h1XAdYXAMZUNgRLw-89">
          <mxGeometry relative="1" as="geometry" />
        </mxCell>
        <mxCell id="uf_4h1XAdYXAMZUNgRLw-68" value="начало&lt;div&gt;AddLast&lt;br&gt;&lt;/div&gt;" style="rounded=1;whiteSpace=wrap;html=1;arcSize=50;" vertex="1" parent="1">
          <mxGeometry x="360" y="20" width="100" height="50" as="geometry" />
        </mxCell>
        <mxCell id="uf_4h1XAdYXAMZUNgRLw-69" style="edgeStyle=orthogonalEdgeStyle;rounded=0;orthogonalLoop=1;jettySize=auto;html=1;exitX=0.5;exitY=1;exitDx=0;exitDy=0;exitPerimeter=0;entryX=0.5;entryY=0;entryDx=0;entryDy=0;" edge="1" parent="1" source="uf_4h1XAdYXAMZUNgRLw-70" target="uf_4h1XAdYXAMZUNgRLw-82">
          <mxGeometry relative="1" as="geometry">
            <mxPoint x="410" y="230" as="targetPoint" />
          </mxGeometry>
        </mxCell>
        <mxCell id="uf_4h1XAdYXAMZUNgRLw-70" value="цикл 1&lt;div&gt;i = n-1&lt;/div&gt;" style="strokeWidth=2;html=1;shape=mxgraph.flowchart.loop_limit;whiteSpace=wrap;" vertex="1" parent="1">
          <mxGeometry x="360" y="160" width="100" height="50" as="geometry" />
        </mxCell>
        <mxCell id="uf_4h1XAdYXAMZUNgRLw-71" style="edgeStyle=orthogonalEdgeStyle;rounded=0;orthogonalLoop=1;jettySize=auto;html=1;exitX=0.5;exitY=0;exitDx=0;exitDy=0;exitPerimeter=0;entryX=0.5;entryY=0;entryDx=0;entryDy=0;" edge="1" parent="1" source="uf_4h1XAdYXAMZUNgRLw-72" target="uf_4h1XAdYXAMZUNgRLw-93">
          <mxGeometry relative="1" as="geometry" />
        </mxCell>
        <mxCell id="uf_4h1XAdYXAMZUNgRLw-72" value="" style="strokeWidth=2;html=1;shape=mxgraph.flowchart.loop_limit;whiteSpace=wrap;rotation=-180;" vertex="1" parent="1">
          <mxGeometry x="360" y="470" width="100" height="50" as="geometry" />
        </mxCell>
        <mxCell id="uf_4h1XAdYXAMZUNgRLw-73" value="цикл 1" style="text;html=1;strokeColor=none;fillColor=none;align=center;verticalAlign=middle;whiteSpace=wrap;rounded=0;" vertex="1" parent="1">
          <mxGeometry x="380" y="480" width="60" height="30" as="geometry" />
        </mxCell>
        <mxCell id="uf_4h1XAdYXAMZUNgRLw-74" value="" style="strokeWidth=2;html=1;shape=mxgraph.flowchart.annotation_1;align=left;pointerEvents=1;" vertex="1" parent="1">
          <mxGeometry x="550" y="235" width="20" height="50" as="geometry" />
        </mxCell>
        <mxCell id="uf_4h1XAdYXAMZUNgRLw-75" value="" style="endArrow=none;dashed=1;html=1;rounded=0;exitX=1;exitY=0.5;exitDx=0;exitDy=0;entryX=0;entryY=0.5;entryDx=0;entryDy=0;entryPerimeter=0;" edge="1" parent="1" target="uf_4h1XAdYXAMZUNgRLw-74">
          <mxGeometry width="50" height="50" relative="1" as="geometry">
            <mxPoint x="530" y="260" as="sourcePoint" />
            <mxPoint x="740" y="315" as="targetPoint" />
          </mxGeometry>
        </mxCell>
        <mxCell id="uf_4h1XAdYXAMZUNgRLw-76" value="maxint - мкасимальное значение integer" style="text;html=1;align=center;verticalAlign=middle;whiteSpace=wrap;rounded=0;" vertex="1" parent="1">
          <mxGeometry x="554" y="245" width="136" height="30" as="geometry" />
        </mxCell>
        <mxCell id="uf_4h1XAdYXAMZUNgRLw-77" value="" style="strokeWidth=2;html=1;shape=mxgraph.flowchart.annotation_1;align=left;pointerEvents=1;" vertex="1" parent="1">
          <mxGeometry x="480" y="160" width="20" height="50" as="geometry" />
        </mxCell>
        <mxCell id="uf_4h1XAdYXAMZUNgRLw-78" value="" style="endArrow=none;dashed=1;html=1;rounded=0;exitX=1;exitY=0.5;exitDx=0;exitDy=0;entryX=0;entryY=0.5;entryDx=0;entryDy=0;entryPerimeter=0;exitPerimeter=0;" edge="1" parent="1" source="uf_4h1XAdYXAMZUNgRLw-70" target="uf_4h1XAdYXAMZUNgRLw-77">
          <mxGeometry width="50" height="50" relative="1" as="geometry">
            <mxPoint x="510" y="185" as="sourcePoint" />
            <mxPoint x="610" y="260" as="targetPoint" />
          </mxGeometry>
        </mxCell>
        <mxCell id="uf_4h1XAdYXAMZUNgRLw-79" value="n = 10, это константа" style="text;html=1;align=center;verticalAlign=middle;whiteSpace=wrap;rounded=0;" vertex="1" parent="1">
          <mxGeometry x="484" y="170" width="76" height="30" as="geometry" />
        </mxCell>
        <mxCell id="uf_4h1XAdYXAMZUNgRLw-80" style="edgeStyle=orthogonalEdgeStyle;rounded=0;orthogonalLoop=1;jettySize=auto;html=1;exitX=1;exitY=0.5;exitDx=0;exitDy=0;entryX=0.5;entryY=0;entryDx=0;entryDy=0;" edge="1" parent="1" source="uf_4h1XAdYXAMZUNgRLw-82" target="uf_4h1XAdYXAMZUNgRLw-86">
          <mxGeometry relative="1" as="geometry" />
        </mxCell>
        <mxCell id="uf_4h1XAdYXAMZUNgRLw-81" style="edgeStyle=orthogonalEdgeStyle;rounded=0;orthogonalLoop=1;jettySize=auto;html=1;exitX=0.5;exitY=1;exitDx=0;exitDy=0;" edge="1" parent="1" source="uf_4h1XAdYXAMZUNgRLw-82" target="uf_4h1XAdYXAMZUNgRLw-87">
          <mxGeometry relative="1" as="geometry" />
        </mxCell>
        <mxCell id="uf_4h1XAdYXAMZUNgRLw-82" value="MaxInt&amp;nbsp;&lt;span style=&quot;font-family: arial, verdana; font-size: 13px; text-align: start; background-color: rgb(255, 255, 255);&quot;&gt;≠&amp;nbsp;&lt;/span&gt;A[i]" style="rhombus;whiteSpace=wrap;html=1;" vertex="1" parent="1">
          <mxGeometry x="360" y="230" width="100" height="60" as="geometry" />
        </mxCell>
        <mxCell id="uf_4h1XAdYXAMZUNgRLw-83" value="да" style="text;html=1;strokeColor=none;fillColor=none;align=center;verticalAlign=middle;whiteSpace=wrap;rounded=0;" vertex="1" parent="1">
          <mxGeometry x="436.5" y="230" width="60" height="30" as="geometry" />
        </mxCell>
        <mxCell id="uf_4h1XAdYXAMZUNgRLw-84" value="нет" style="text;html=1;strokeColor=none;fillColor=none;align=center;verticalAlign=middle;whiteSpace=wrap;rounded=0;" vertex="1" parent="1">
          <mxGeometry x="400" y="280" width="60" height="30" as="geometry" />
        </mxCell>
        <mxCell id="uf_4h1XAdYXAMZUNgRLw-85" style="edgeStyle=orthogonalEdgeStyle;rounded=0;orthogonalLoop=1;jettySize=auto;html=1;exitX=0.5;exitY=1;exitDx=0;exitDy=0;" edge="1" parent="1" source="uf_4h1XAdYXAMZUNgRLw-86">
          <mxGeometry relative="1" as="geometry">
            <mxPoint x="410" y="380" as="targetPoint" />
            <Array as="points">
              <mxPoint x="530" y="380" />
            </Array>
          </mxGeometry>
        </mxCell>
        <mxCell id="uf_4h1XAdYXAMZUNgRLw-86" value="k=k+1" style="rounded=0;whiteSpace=wrap;html=1;" vertex="1" parent="1">
          <mxGeometry x="480" y="310" width="100" height="50" as="geometry" />
        </mxCell>
        <mxCell id="uf_4h1XAdYXAMZUNgRLw-87" value="i = i + 1" style="rounded=0;whiteSpace=wrap;html=1;" vertex="1" parent="1">
          <mxGeometry x="360" y="400" width="100" height="50" as="geometry" />
        </mxCell>
        <mxCell id="uf_4h1XAdYXAMZUNgRLw-88" style="edgeStyle=orthogonalEdgeStyle;rounded=0;orthogonalLoop=1;jettySize=auto;html=1;exitX=0.5;exitY=1;exitDx=0;exitDy=0;entryX=0.5;entryY=1;entryDx=0;entryDy=0;entryPerimeter=0;" edge="1" parent="1" source="uf_4h1XAdYXAMZUNgRLw-87" target="uf_4h1XAdYXAMZUNgRLw-72">
          <mxGeometry relative="1" as="geometry" />
        </mxCell>
        <mxCell id="uf_4h1XAdYXAMZUNgRLw-89" value="i = 0" style="rounded=0;whiteSpace=wrap;html=1;" vertex="1" parent="1">
          <mxGeometry x="360" y="90" width="100" height="50" as="geometry" />
        </mxCell>
        <mxCell id="uf_4h1XAdYXAMZUNgRLw-90" style="edgeStyle=orthogonalEdgeStyle;rounded=0;orthogonalLoop=1;jettySize=auto;html=1;exitX=0.5;exitY=1;exitDx=0;exitDy=0;entryX=0.5;entryY=0;entryDx=0;entryDy=0;entryPerimeter=0;" edge="1" parent="1" source="uf_4h1XAdYXAMZUNgRLw-89" target="uf_4h1XAdYXAMZUNgRLw-70">
          <mxGeometry relative="1" as="geometry" />
        </mxCell>
        <mxCell id="uf_4h1XAdYXAMZUNgRLw-91" style="edgeStyle=orthogonalEdgeStyle;rounded=0;orthogonalLoop=1;jettySize=auto;html=1;exitX=1;exitY=0.5;exitDx=0;exitDy=0;entryX=0.5;entryY=0;entryDx=0;entryDy=0;" edge="1" parent="1" source="uf_4h1XAdYXAMZUNgRLw-93" target="uf_4h1XAdYXAMZUNgRLw-96">
          <mxGeometry relative="1" as="geometry" />
        </mxCell>
        <mxCell id="uf_4h1XAdYXAMZUNgRLw-107" style="edgeStyle=orthogonalEdgeStyle;rounded=0;orthogonalLoop=1;jettySize=auto;html=1;exitX=0.5;exitY=1;exitDx=0;exitDy=0;entryX=0.5;entryY=0;entryDx=0;entryDy=0;" edge="1" parent="1" source="uf_4h1XAdYXAMZUNgRLw-93" target="uf_4h1XAdYXAMZUNgRLw-99">
          <mxGeometry relative="1" as="geometry" />
        </mxCell>
        <mxCell id="uf_4h1XAdYXAMZUNgRLw-93" value="k = n" style="rhombus;whiteSpace=wrap;html=1;" vertex="1" parent="1">
          <mxGeometry x="360" y="540" width="100" height="60" as="geometry" />
        </mxCell>
        <mxCell id="uf_4h1XAdYXAMZUNgRLw-94" value="да" style="text;html=1;strokeColor=none;fillColor=none;align=center;verticalAlign=middle;whiteSpace=wrap;rounded=0;" vertex="1" parent="1">
          <mxGeometry x="433" y="540" width="60" height="30" as="geometry" />
        </mxCell>
        <mxCell id="uf_4h1XAdYXAMZUNgRLw-95" value="нет" style="text;html=1;strokeColor=none;fillColor=none;align=center;verticalAlign=middle;whiteSpace=wrap;rounded=0;" vertex="1" parent="1">
          <mxGeometry x="400" y="590" width="60" height="30" as="geometry" />
        </mxCell>
        <mxCell id="uf_4h1XAdYXAMZUNgRLw-121" style="edgeStyle=orthogonalEdgeStyle;rounded=0;orthogonalLoop=1;jettySize=auto;html=1;exitX=0.5;exitY=1;exitDx=0;exitDy=0;" edge="1" parent="1" source="uf_4h1XAdYXAMZUNgRLw-96">
          <mxGeometry relative="1" as="geometry">
            <mxPoint x="410" y="1040" as="targetPoint" />
            <Array as="points">
              <mxPoint x="530" y="770" />
              <mxPoint x="720" y="770" />
              <mxPoint x="720" y="1040" />
            </Array>
          </mxGeometry>
        </mxCell>
        <mxCell id="uf_4h1XAdYXAMZUNgRLw-96" value="Вывод:&lt;br&gt;&lt;div&gt;Превышено кол-во элементов&lt;br&gt;&lt;/div&gt;" style="shape=parallelogram;perimeter=parallelogramPerimeter;whiteSpace=wrap;html=1;fixedSize=1;" vertex="1" parent="1">
          <mxGeometry x="480" y="610" width="100" height="50" as="geometry" />
        </mxCell>
        <mxCell id="uf_4h1XAdYXAMZUNgRLw-111" style="edgeStyle=orthogonalEdgeStyle;rounded=0;orthogonalLoop=1;jettySize=auto;html=1;exitX=0.5;exitY=1;exitDx=0;exitDy=0;exitPerimeter=0;entryX=0.5;entryY=0;entryDx=0;entryDy=0;" edge="1" parent="1" source="uf_4h1XAdYXAMZUNgRLw-98" target="uf_4h1XAdYXAMZUNgRLw-108">
          <mxGeometry relative="1" as="geometry" />
        </mxCell>
        <mxCell id="uf_4h1XAdYXAMZUNgRLw-98" value="цикл 2&lt;div&gt;i = 0&lt;/div&gt;" style="strokeWidth=2;html=1;shape=mxgraph.flowchart.loop_limit;whiteSpace=wrap;" vertex="1" parent="1">
          <mxGeometry x="360" y="690" width="100" height="50" as="geometry" />
        </mxCell>
        <mxCell id="uf_4h1XAdYXAMZUNgRLw-99" value="i = n-2" style="rounded=0;whiteSpace=wrap;html=1;" vertex="1" parent="1">
          <mxGeometry x="360" y="620" width="100" height="50" as="geometry" />
        </mxCell>
        <mxCell id="uf_4h1XAdYXAMZUNgRLw-100" style="edgeStyle=orthogonalEdgeStyle;rounded=0;orthogonalLoop=1;jettySize=auto;html=1;exitX=0.5;exitY=1;exitDx=0;exitDy=0;entryX=0.5;entryY=0;entryDx=0;entryDy=0;entryPerimeter=0;" edge="1" parent="1" source="uf_4h1XAdYXAMZUNgRLw-99" target="uf_4h1XAdYXAMZUNgRLw-98">
          <mxGeometry relative="1" as="geometry" />
        </mxCell>
        <mxCell id="uf_4h1XAdYXAMZUNgRLw-103" value="i = i - 1" style="rounded=0;whiteSpace=wrap;html=1;" vertex="1" parent="1">
          <mxGeometry x="360" y="840" width="100" height="50" as="geometry" />
        </mxCell>
        <mxCell id="uf_4h1XAdYXAMZUNgRLw-119" style="edgeStyle=orthogonalEdgeStyle;rounded=0;orthogonalLoop=1;jettySize=auto;html=1;exitX=0.5;exitY=0;exitDx=0;exitDy=0;exitPerimeter=0;entryX=0.5;entryY=0;entryDx=0;entryDy=0;" edge="1" parent="1" source="uf_4h1XAdYXAMZUNgRLw-104" target="uf_4h1XAdYXAMZUNgRLw-118">
          <mxGeometry relative="1" as="geometry" />
        </mxCell>
        <mxCell id="uf_4h1XAdYXAMZUNgRLw-104" value="" style="strokeWidth=2;html=1;shape=mxgraph.flowchart.loop_limit;whiteSpace=wrap;rotation=-180;" vertex="1" parent="1">
          <mxGeometry x="360" y="910" width="100" height="50" as="geometry" />
        </mxCell>
        <mxCell id="uf_4h1XAdYXAMZUNgRLw-105" value="цикл 2" style="text;html=1;strokeColor=none;fillColor=none;align=center;verticalAlign=middle;whiteSpace=wrap;rounded=0;" vertex="1" parent="1">
          <mxGeometry x="380" y="920" width="60" height="30" as="geometry" />
        </mxCell>
        <mxCell id="uf_4h1XAdYXAMZUNgRLw-106" style="edgeStyle=orthogonalEdgeStyle;rounded=0;orthogonalLoop=1;jettySize=auto;html=1;exitX=0.5;exitY=1;exitDx=0;exitDy=0;entryX=0.5;entryY=1;entryDx=0;entryDy=0;entryPerimeter=0;" edge="1" parent="1" source="uf_4h1XAdYXAMZUNgRLw-103" target="uf_4h1XAdYXAMZUNgRLw-104">
          <mxGeometry relative="1" as="geometry" />
        </mxCell>
        <mxCell id="uf_4h1XAdYXAMZUNgRLw-116" style="edgeStyle=orthogonalEdgeStyle;rounded=0;orthogonalLoop=1;jettySize=auto;html=1;exitX=1;exitY=0.5;exitDx=0;exitDy=0;entryX=0.5;entryY=0;entryDx=0;entryDy=0;" edge="1" parent="1" source="uf_4h1XAdYXAMZUNgRLw-108" target="uf_4h1XAdYXAMZUNgRLw-112">
          <mxGeometry relative="1" as="geometry" />
        </mxCell>
        <mxCell id="uf_4h1XAdYXAMZUNgRLw-117" style="edgeStyle=orthogonalEdgeStyle;rounded=0;orthogonalLoop=1;jettySize=auto;html=1;exitX=0.5;exitY=1;exitDx=0;exitDy=0;entryX=0.5;entryY=0;entryDx=0;entryDy=0;" edge="1" parent="1" source="uf_4h1XAdYXAMZUNgRLw-108" target="uf_4h1XAdYXAMZUNgRLw-103">
          <mxGeometry relative="1" as="geometry" />
        </mxCell>
        <mxCell id="uf_4h1XAdYXAMZUNgRLw-108" value="A[i]&amp;nbsp;&lt;span style=&quot;font-family: arial, verdana; font-size: 13px; text-align: start; background-color: rgb(255, 255, 255);&quot;&gt;≠&amp;nbsp;&lt;/span&gt;MaxInt" style="rhombus;whiteSpace=wrap;html=1;" vertex="1" parent="1">
          <mxGeometry x="360" y="760" width="100" height="60" as="geometry" />
        </mxCell>
        <mxCell id="uf_4h1XAdYXAMZUNgRLw-109" value="да" style="text;html=1;strokeColor=none;fillColor=none;align=center;verticalAlign=middle;whiteSpace=wrap;rounded=0;" vertex="1" parent="1">
          <mxGeometry x="433" y="760" width="60" height="30" as="geometry" />
        </mxCell>
        <mxCell id="uf_4h1XAdYXAMZUNgRLw-110" value="нет" style="text;html=1;strokeColor=none;fillColor=none;align=center;verticalAlign=middle;whiteSpace=wrap;rounded=0;" vertex="1" parent="1">
          <mxGeometry x="400" y="810" width="60" height="30" as="geometry" />
        </mxCell>
        <mxCell id="uf_4h1XAdYXAMZUNgRLw-120" style="edgeStyle=orthogonalEdgeStyle;rounded=0;orthogonalLoop=1;jettySize=auto;html=1;exitX=0.5;exitY=1;exitDx=0;exitDy=0;" edge="1" parent="1" source="uf_4h1XAdYXAMZUNgRLw-112">
          <mxGeometry relative="1" as="geometry">
            <mxPoint x="410" y="980" as="targetPoint" />
            <Array as="points">
              <mxPoint x="530" y="980" />
            </Array>
          </mxGeometry>
        </mxCell>
        <mxCell id="uf_4h1XAdYXAMZUNgRLw-112" value="A[i+1] = NewNumber" style="rounded=0;whiteSpace=wrap;html=1;" vertex="1" parent="1">
          <mxGeometry x="480" y="840" width="100" height="50" as="geometry" />
        </mxCell>
        <mxCell id="uf_4h1XAdYXAMZUNgRLw-113" value="" style="strokeWidth=2;html=1;shape=mxgraph.flowchart.annotation_1;align=left;pointerEvents=1;" vertex="1" parent="1">
          <mxGeometry x="600" y="840" width="20" height="50" as="geometry" />
        </mxCell>
        <mxCell id="uf_4h1XAdYXAMZUNgRLw-114" value="" style="endArrow=none;dashed=1;html=1;rounded=0;exitX=1;exitY=0.5;exitDx=0;exitDy=0;entryX=0;entryY=0.5;entryDx=0;entryDy=0;entryPerimeter=0;" edge="1" parent="1" target="uf_4h1XAdYXAMZUNgRLw-113">
          <mxGeometry width="50" height="50" relative="1" as="geometry">
            <mxPoint x="580" y="865" as="sourcePoint" />
            <mxPoint x="790" y="920" as="targetPoint" />
          </mxGeometry>
        </mxCell>
        <mxCell id="uf_4h1XAdYXAMZUNgRLw-115" value="NewNumber - число введённое в подпрограмму" style="text;html=1;align=center;verticalAlign=middle;whiteSpace=wrap;rounded=0;" vertex="1" parent="1">
          <mxGeometry x="600" y="850" width="110" height="30" as="geometry" />
        </mxCell>
        <mxCell id="uf_4h1XAdYXAMZUNgRLw-118" value="конец" style="rounded=1;whiteSpace=wrap;html=1;arcSize=50;" vertex="1" parent="1">
          <mxGeometry x="360" y="1060" width="100" height="50" as="geometry" />
        </mxCell>
      </root>
    </mxGraphModel>
  </diagram>
</mxfile>
